<?xml version="1.0" encoding="UTF-8"?>
<svg version="1.1" xmlns="http://www.w3.org/2000/svg" width="512" height="512">
<path d="M0 0 C15.24564675 12.43071936 26.39285097 27.42990688 33 46 C33 46.99 33 47.98 33 49 C34.08410156 48.71125 35.16820312 48.4225 36.28515625 48.125 C69.71871652 39.96976525 104.22278313 44.96025019 134 62 C141.46474826 66.64394869 148.30719761 72.03475196 154.8125 77.9375 C155.63645264 78.68398804 155.63645264 78.68398804 156.47705078 79.44555664 C159.95835262 82.7160786 162.36488341 86.07551093 164.9375 90.125 C167.90796828 93.94183332 170.13442726 95.2828435 174.8125 95.98828125 C179.59990972 96.45872773 184.39858412 96.62251856 189.20361328 96.81787109 C216.52964002 98.59761755 243.47554434 113.28641118 261.57275391 133.32714844 C279.74366432 154.62497227 286.89223354 182.39696843 285.9375 210 C284.64929223 224.69455605 280.97998489 238.98616628 274 252 C273.52691406 252.95003906 273.05382812 253.90007812 272.56640625 254.87890625 C269.11599095 261.60207318 264.88513042 267.25732203 260 273 C259.48050781 273.66515625 258.96101563 274.3303125 258.42578125 275.015625 C246.23770619 290.12024195 227.40769877 300.62258155 209 306 C208.16758254 306.25454988 207.33516508 306.50909975 206.47752285 306.77136326 C193.6903027 310.08756437 180.59926644 309.42833419 167.48657227 309.40405273 C164.70099003 309.40812232 161.91542495 309.41662845 159.12985229 309.42485046 C152.37557233 309.44196312 145.6213857 309.44289432 138.8670897 309.43763756 C133.37269173 309.43358088 127.87832116 309.43505711 122.38392448 309.44038582 C121.59917423 309.44113424 120.81442398 309.44188266 120.00589342 309.44265376 C118.41121586 309.44418538 116.81653831 309.44572373 115.22186076 309.44726873 C100.29982126 309.46096624 85.37783433 309.45557523 70.45579606 309.44408352 C56.83209629 309.4341517 43.20853236 309.4470958 29.58485354 309.47101771 C15.56199991 309.49545318 1.53920943 309.50500582 -12.48366505 309.49836498 C-20.3428585 309.49488293 -28.20194755 309.49703765 -36.0611248 309.51461601 C-42.75049515 309.5293937 -49.43968753 309.52990111 -56.1290546 309.5125451 C-59.53566748 309.50407844 -62.94170466 309.50397724 -66.34834099 309.51719666 C-92.57049416 309.61114301 -92.57049416 309.61114301 -105 305 C-106.09809714 304.60152076 -107.19619429 304.20304152 -108.3275671 303.79248714 C-120.90292431 299.0376789 -130.55417561 291.31010852 -140 282 C-141.00546875 281.01386719 -141.00546875 281.01386719 -142.03125 280.0078125 C-156.53595322 264.64601318 -163.62968876 242.47935954 -163.4375 221.75 C-163.42847656 220.57195801 -163.41945312 219.39391602 -163.41015625 218.18017578 C-162.90743284 192.705365 -152.54406444 171.76526222 -134.30859375 154.0703125 C-131.66503581 151.6996091 -129.06795063 149.77618195 -126 148 C-126.804375 147.0925 -127.60875 146.185 -128.4375 145.25 C-149.52196641 120.39513489 -156.67886927 95.52223018 -155 63 C-152.4321529 38.50838613 -137.85555141 17.02985748 -119.71875 1.16015625 C-85.17629866 -26.28521097 -34.93659817 -26.71329047 0 0 Z " fill="#4BB9E9" transform="translate(219,83)"/>
<path d="M0 0 C15.80490801 12.88671967 29.2133245 29.79473245 34 50 C33.4423999 50.22550537 32.8847998 50.45101074 32.31030273 50.68334961 C-1.98693354 64.66647553 -28.61516257 85.63231852 -44 120 C-46.24785257 125.5829018 -48.17073274 131.26829593 -50 137 C-51.89600369 136.68853528 -53.79179587 136.37578283 -55.6875 136.0625 C-56.74324219 135.88847656 -57.79898438 135.71445313 -58.88671875 135.53515625 C-60.73598874 135.21727672 -62.58092116 134.86724492 -64.41015625 134.44921875 C-81.92161632 131.41178601 -103.7305581 134.97369817 -118.5 144.875 C-119.35078125 145.52082031 -119.35078125 145.52082031 -120.21875 146.1796875 C-122.88715868 147.40855992 -124.26040055 146.98642159 -127 146 C-142.46969361 132.77631411 -152.67103141 111.01752127 -155 91 C-157.00706443 62.61683559 -152.11130766 37.7597016 -133.84375 15.35546875 C-99.85717632 -23.59745285 -41.6820855 -31.87103827 0 0 Z " fill="#F0893A" transform="translate(219,83)"/>
<path d="M0 0 C11.90459144 3.67610364 22.01884207 20.92778042 27.921875 31.4140625 C33.02272766 41.39715985 35.22017632 51.95964182 32.1640625 63.02734375 C28.76428008 70.43156787 23.51628366 75.82272345 15.859375 78.66796875 C10.86891004 80.2309447 6.19875793 80.4469828 1 80.375 C0.16210938 80.38660156 -0.67578125 80.39820313 -1.5390625 80.41015625 C-11.08693728 80.36581627 -18.14970884 77.89105997 -25.046875 71.2109375 C-31.15528396 64.29621856 -31.78409732 56.86324447 -31.3671875 47.91796875 C-29.58169285 28.86636095 -13.8665529 13.79918875 -1 1 C-0.67 0.67 -0.34 0.34 0 0 Z " fill="#7BD4F2" transform="translate(391,424)"/>
<path d="M0 0 C11.90459144 3.67610364 22.01884207 20.92778042 27.921875 31.4140625 C33.02272766 41.39715985 35.22017632 51.95964182 32.1640625 63.02734375 C28.76428008 70.43156787 23.51628366 75.82272345 15.859375 78.66796875 C10.86891004 80.2309447 6.19875793 80.4469828 1 80.375 C0.16210938 80.38660156 -0.67578125 80.39820313 -1.5390625 80.41015625 C-11.08693728 80.36581627 -18.14970884 77.89105997 -25.046875 71.2109375 C-31.15528396 64.29621856 -31.78409732 56.86324447 -31.3671875 47.91796875 C-29.58169285 28.86636095 -13.8665529 13.79918875 -1 1 C-0.67 0.67 -0.34 0.34 0 0 Z " fill="#7BD4F2" transform="translate(271,424)"/>
<path d="M0 0 C11.90459144 3.67610364 22.01884207 20.92778042 27.921875 31.4140625 C33.02272766 41.39715985 35.22017632 51.95964182 32.1640625 63.02734375 C28.76428008 70.43156787 23.51628366 75.82272345 15.859375 78.66796875 C10.86891004 80.2309447 6.19875793 80.4469828 1 80.375 C0.16210938 80.38660156 -0.67578125 80.39820313 -1.5390625 80.41015625 C-11.08693728 80.36581627 -18.14970884 77.89105997 -25.046875 71.2109375 C-31.15528396 64.29621856 -31.78409732 56.86324447 -31.3671875 47.91796875 C-29.58169285 28.86636095 -13.8665529 13.79918875 -1 1 C-0.67 0.67 -0.34 0.34 0 0 Z " fill="#7BD4F2" transform="translate(151,424)"/>
<path d="M0 0 C3.20549304 2.59204289 4.77820539 3.93538587 5.625 8 C4.76987067 12.1046208 3.26701747 13.40006987 0 16 C-2.92289797 16.56232105 -5.43830343 16.8661166 -8.375 17 C-27.69264532 18.54863058 -45.4777995 27.14779336 -58.44140625 41.75 C-66.05106634 51.43268086 -71.39461231 62.14508454 -75.078125 73.890625 C-76 76 -76 76 -79 78 C-82.80121737 78.41467826 -85.10847173 78.52577308 -88.4375 76.5625 C-90.74578673 72.77690976 -90.42581972 69.34144339 -90 65 C-89.27330456 62.09421599 -88.20542752 59.42550589 -87 56.6875 C-86.68530762 55.95329834 -86.37061523 55.21909668 -86.04638672 54.46264648 C-81.211351 43.56060509 -74.3362549 34.47612495 -66 26 C-65.25234375 25.23945313 -64.5046875 24.47890625 -63.734375 23.6953125 C-47.94796528 8.58845022 -22.2545019 -3.98901449 0 0 Z " fill="#7BD3F1" transform="translate(290,160)"/>
<path d="M0 0 C1.90625 0.4296875 1.90625 0.4296875 4.40625 2.2421875 C9.44250827 12.94423633 4.11328377 27.27067649 0.37890625 37.75 C-3.49760065 47.436126 -9.85274846 55.04065867 -17.09375 62.4296875 C-17.75761719 63.12964844 -18.42148437 63.82960938 -19.10546875 64.55078125 C-31.66949794 76.82763263 -50.13634032 82.78734879 -67.38671875 82.9609375 C-70.8037231 82.29035656 -71.97399642 81.14744495 -74.09375 78.4296875 C-75.15625 74.9921875 -75.15625 74.9921875 -75.09375 71.4296875 C-73.40625 68.5546875 -73.40625 68.5546875 -70.09375 66.4296875 C-67.24123897 66.0253946 -64.42466498 65.91628707 -61.546875 65.78515625 C-51.31951866 64.73234016 -41.41309626 60.34600504 -33.09375 54.4296875 C-32.46082031 53.97980469 -31.82789063 53.52992188 -31.17578125 53.06640625 C-19.76851915 44.12694037 -14.13424376 30.16382027 -11.09375 16.4296875 C-10.78657566 13.25675727 -10.59742457 10.1399916 -10.5625 6.953125 C-9.46558097 1.04804422 -5.38639427 -0.34167426 0 0 Z " fill="#7BD3F1" transform="translate(466.09375,277.5703125)"/>
<path d="M0 0 C3.06862356 2.54471222 3.84823663 4.08941981 4.5 8 C3.84584147 11.92495116 2.78529705 13.1104628 0 16 C-3.2972481 18.32069827 -6.74767496 20.31912966 -10.25 22.3125 C-11.16652344 22.86228516 -12.08304687 23.41207031 -13.02734375 23.97851562 C-18.67118376 27.21909423 -22.48192471 28.79006973 -29 28 C-31.4375 26.9375 -31.4375 26.9375 -33 25 C-34.04171911 21.2498112 -34.49700989 19.04582967 -32.80322266 15.48168945 C-29.61764487 11.09753048 -24.98254024 8.89586409 -20.375 6.1875 C-18.93447266 5.2912793 -18.93447266 5.2912793 -17.46484375 4.37695312 C-11.31973291 0.72907525 -7.16067614 -0.94200784 0 0 Z " fill="#EF6A06" transform="translate(296,76)"/>
<path d="M0 0 C2.4375 1.0625 2.4375 1.0625 4 3 C5.04171911 6.7501888 5.49700989 8.95417033 3.80322266 12.51831055 C0.61764487 16.90246952 -4.01745976 19.10413591 -8.625 21.8125 C-9.58535156 22.40998047 -10.54570313 23.00746094 -11.53515625 23.62304688 C-17.68026709 27.27092475 -21.83932386 28.94200784 -29 28 C-32.06862356 25.45528778 -32.84823663 23.91058019 -33.5 20 C-32.84584147 16.07504884 -31.78529705 14.8895372 -29 12 C-25.7027519 9.67930173 -22.25232504 7.68087034 -18.75 5.6875 C-17.37521484 4.86282227 -17.37521484 4.86282227 -15.97265625 4.02148438 C-10.32881624 0.78090577 -6.51807529 -0.79006973 0 0 Z " fill="#EF6A06" transform="translate(53,216)"/>
<path d="M0 0 C5.25444154 0.91780638 9.53248226 3.8653579 14.00268555 6.64648438 C14.98624023 7.22462891 15.96979492 7.80277344 16.9831543 8.3984375 C25.21457023 13.38120296 25.21457023 13.38120296 27.62768555 18.45898438 C27.56379972 22.16436242 27.42028261 24.47616402 25.06518555 27.39648438 C21.51747996 28.94292015 18.39104567 29.07903722 14.62768555 28.45898438 C10.83545862 26.90259501 7.3883005 24.87735959 3.87768555 22.77148438 C2.94569336 22.24103516 2.01370117 21.71058594 1.0534668 21.1640625 C-3.55775981 18.46811581 -7.53481188 16.13767542 -10.37231445 11.45898438 C-10.99427376 7.72722851 -10.62651214 5.96737976 -8.93481445 2.58398438 C-5.89913095 0.0665883 -3.88409741 -0.09705352 0 0 Z " fill="#EF6A06" transform="translate(30.372314453125,75.541015625)"/>
<path d="M0 0 C2.875 1.4375 2.875 1.4375 5 4 C6.13772662 12.44929329 3.06898236 17.41994557 -1.375 24.4375 C-1.97828125 25.42943359 -2.5815625 26.42136719 -3.203125 27.44335938 C-8.88342375 36.70224633 -8.88342375 36.70224633 -12.8125 37.75 C-16.28322061 38.02221338 -17.97940356 37.67810913 -21 36 C-23.52210092 32.21684861 -23.7875955 29.37129126 -23 25 C-21.43776435 21.21003806 -19.41851754 17.76085221 -17.3125 14.25 C-16.51682617 12.85201172 -16.51682617 12.85201172 -15.70507812 11.42578125 C-8.22368484 -1.37061414 -8.22368484 -1.37061414 0 0 Z " fill="#EF6A06" transform="translate(239,20)"/>
<path d="M0 0 C5.55280577 3.36763007 8.18957961 8.76307062 11.3125 14.25 C12.13717773 15.62478516 12.13717773 15.62478516 12.97851562 17.02734375 C16.21783847 22.66899671 17.79716451 26.48372866 17 33 C15.875 35.4375 15.875 35.4375 14 37 C10.83888674 37.96207795 8.76032376 38.19159674 5.55078125 37.3828125 C2.11699868 35.52131322 1.00432696 33.36742181 -0.9375 30 C-1.62331781 28.8174878 -2.30951969 27.63519827 -2.99609375 26.453125 C-3.98802734 24.74382813 -3.98802734 24.74382813 -5 23 C-5.60972656 22.08734375 -6.21945313 21.1746875 -6.84765625 20.234375 C-10.00320161 15.48986709 -11.961371 11.72353752 -11.51953125 5.91796875 C-11 4 -11 4 -8.875 1.4375 C-5.49160462 -0.25419769 -3.73175586 -0.62195931 0 0 Z " fill="#EF6A06" transform="translate(87,20)"/>
<path d="M0 0 C1.04269043 -0.00574036 1.04269043 -0.00574036 2.10644531 -0.01159668 C3.57228041 -0.0143118 5.03816428 -0.00697835 6.50390625 0.00976562 C8.74328975 0.03118581 10.97946587 0.00995557 13.21875 -0.015625 C14.64584039 -0.01298165 16.07292879 -0.0078565 17.5 0 C19.44132812 0.00676758 19.44132812 0.00676758 21.421875 0.01367188 C25.25919979 0.61043894 26.44070951 1.47408051 28.75 4.53125 C29.28125 6.53125 29.28125 6.53125 29.25 8.53125 C29.2603125 9.19125 29.270625 9.85125 29.28125 10.53125 C28.48927074 13.51281897 27.16446325 14.62735121 24.75 16.53125 C21.421875 17.04882812 21.421875 17.04882812 17.5 17.0625 C16.80487305 17.0663269 16.10974609 17.07015381 15.39355469 17.07409668 C13.92771959 17.0768118 12.46183572 17.06947835 10.99609375 17.05273438 C8.75671025 17.03131419 6.52053413 17.05254443 4.28125 17.078125 C2.85415961 17.07548165 1.42707121 17.0703565 0 17.0625 C-1.29421875 17.05798828 -2.5884375 17.05347656 -3.921875 17.04882812 C-7.75919979 16.45206106 -8.94070951 15.58841949 -11.25 12.53125 C-11.78125 10.53125 -11.78125 10.53125 -11.75 8.53125 C-11.76546875 7.54125 -11.76546875 7.54125 -11.78125 6.53125 C-10.16044839 0.42940865 -5.57509951 0.01943511 0 0 Z " fill="#EF6B06" transform="translate(11.25,151.46875)"/>
<path d="M0 0 C0.66 -0.0103125 1.32 -0.020625 2 -0.03125 C4.98156897 0.76072926 6.09610121 2.08553675 8 4.5 C8.51757812 7.828125 8.51757812 7.828125 8.53125 11.75 C8.5350769 12.44512695 8.53890381 13.14025391 8.54284668 13.85644531 C8.5455618 15.32228041 8.53822835 16.78816428 8.52148438 18.25390625 C8.50006419 20.49328975 8.52129443 22.72946587 8.546875 24.96875 C8.54423165 26.39584039 8.5391065 27.82292879 8.53125 29.25 C8.52673828 30.54421875 8.52222656 31.8384375 8.51757812 33.171875 C7.92081106 37.00919979 7.05716949 38.19070951 4 40.5 C2 41.03125 2 41.03125 0 41 C-0.99 41.01546875 -0.99 41.01546875 -2 41.03125 C-4.98156897 40.23927074 -6.09610121 38.91446325 -8 36.5 C-8.51757812 33.171875 -8.51757812 33.171875 -8.53125 29.25 C-8.5350769 28.55487305 -8.53890381 27.85974609 -8.54284668 27.14355469 C-8.5455618 25.67771959 -8.53822835 24.21183572 -8.52148438 22.74609375 C-8.50006419 20.50671025 -8.52129443 18.27053413 -8.546875 16.03125 C-8.54423165 14.60415961 -8.5391065 13.17707121 -8.53125 11.75 C-8.52673828 10.45578125 -8.52222656 9.1615625 -8.51757812 7.828125 C-7.7418101 2.83979026 -5.19836111 -0.08122439 0 0 Z " fill="#EF6B06" transform="translate(160,-0.5)"/>
<path d="M0 0 C4.0743356 0.84881992 5.54405875 2.30225596 8 5.625 C8.625 8.625 8.625 8.625 8 11.625 C5.54405875 14.94774404 4.0743356 16.40118008 0 17.25 C-4.0743356 16.40118008 -5.54405875 14.94774404 -8 11.625 C-8.625 8.625 -8.625 8.625 -8 5.625 C-5.54405875 2.30225596 -4.0743356 0.84881992 0 0 Z " fill="#79D2F1" transform="translate(360,343.375)"/>
</svg>
